<?xml version="1.0" encoding="UTF-8" standalone="no"?>
<svg width="541px" height="541px" viewBox="0 0 541 541" version="1.1" xmlns="http://www.w3.org/2000/svg" xmlns:xlink="http://www.w3.org/1999/xlink" xmlns:sketch="http://www.bohemiancoding.com/sketch/ns">
    <!-- Generator: Sketch 3.3.3 (12081) - http://www.bohemiancoding.com/sketch -->
    <title>Slice 1</title>
    <desc>Created with Sketch.</desc>
    <defs></defs>
    <g id="Page-1" stroke="none" stroke-width="1" fill="none" fill-rule="evenodd" sketch:type="MSPage">
        <g id="Group-+-Shape-Copy-11-+-Shape-Copy-12" sketch:type="MSLayerGroup">
            <g id="square" transform="translate(0.000000, 18.000000)" fill="#20D699" sketch:type="MSShapeGroup">
                <path d="M417.726183,12.2978111 L347.302183,12.2978111 C347.026183,12.2978111 346.802183,12.5218111 346.802183,12.7978111 L346.802183,83.2228111 C346.802183,83.4988111 347.026183,83.7228111 347.302183,83.7228111 L382.014183,83.7228111 L382.014183,102.258811 C382.014183,102.261811 382.016183,102.264811 382.016183,102.267811 L367.433183,102.267811 C367.157183,102.267811 366.933183,102.491811 366.933183,102.767811 C366.933183,103.043811 367.157183,103.267811 367.433183,103.267811 L397.588183,103.267811 C397.864183,103.267811 398.088183,103.043811 398.088183,102.767811 C398.088183,102.491811 397.864183,102.267811 397.588183,102.267811 L383.012183,102.267811 C383.012183,102.264811 383.014183,102.261811 383.014183,102.258811 L383.014183,83.7228111 L417.726183,83.7228111 C418.002183,83.7228111 418.226183,83.4988111 418.226183,83.2228111 L418.226183,12.7978111 C418.226183,12.5218111 418.003183,12.2978111 417.726183,12.2978111 L417.726183,12.2978111 Z M417.226183,82.7228111 L383.014183,82.7228111 L383.014183,58.8108111 L399.517183,42.3078111 C399.712183,42.1128111 399.712183,41.7958111 399.517183,41.6008111 C399.322183,41.4058111 399.005183,41.4058111 398.810183,41.6008111 L383.014183,57.3968111 L383.014183,36.5478111 L391.467183,28.0948111 C391.662183,27.8998111 391.662183,27.5828111 391.467183,27.3878111 C391.272183,27.1928111 390.955183,27.1928111 390.760183,27.3878111 L383.014183,35.1338111 L383.014183,25.0108111 C383.014183,24.7348111 382.790183,24.5108111 382.514183,24.5108111 C382.238183,24.5108111 382.014183,24.7348111 382.014183,25.0108111 L382.014183,36.1988111 C381.971183,36.3118111 381.971183,36.4368111 382.014183,36.5498111 L382.014183,39.8648111 L374.127183,31.9778111 C373.932183,31.7828111 373.615183,31.7828111 373.420183,31.9778111 C373.225183,32.1728111 373.225183,32.4898111 373.420183,32.6848111 L382.014183,41.2788111 L382.014183,66.3898111 L366.077183,50.4528111 C365.882183,50.2578111 365.565183,50.2578111 365.370183,50.4528111 C365.175183,50.6478111 365.175183,50.9648111 365.370183,51.1598111 L382.014183,67.8038111 L382.014183,82.7228111 L347.802183,82.7228111 L347.802183,13.2978111 L417.227183,13.2978111 L417.227183,82.7228111 L417.226183,82.7228111 Z" id="Shape-Copy-3" transform="translate(382.514183, 57.782811) rotate(-330.000000) translate(-382.514183, -57.782811) "></path>
                <path d="M417.917645,401.584262 L347.493645,401.584262 C347.217645,401.584262 346.993645,401.808262 346.993645,402.084262 L346.993645,472.509262 C346.993645,472.785262 347.217645,473.009262 347.493645,473.009262 L382.205645,473.009262 L382.205645,491.545262 C382.205645,491.548262 382.207645,491.551262 382.207645,491.554262 L367.624645,491.554262 C367.348645,491.554262 367.124645,491.778262 367.124645,492.054262 C367.124645,492.330262 367.348645,492.554262 367.624645,492.554262 L397.779645,492.554262 C398.055645,492.554262 398.279645,492.330262 398.279645,492.054262 C398.279645,491.778262 398.055645,491.554262 397.779645,491.554262 L383.203645,491.554262 C383.203645,491.551262 383.205645,491.548262 383.205645,491.545262 L383.205645,473.009262 L417.917645,473.009262 C418.193645,473.009262 418.417645,472.785262 418.417645,472.509262 L418.417645,402.084262 C418.417645,401.808262 418.194645,401.584262 417.917645,401.584262 L417.917645,401.584262 Z M417.417645,472.009262 L383.205645,472.009262 L383.205645,448.097262 L399.708645,431.594262 C399.903645,431.399262 399.903645,431.082262 399.708645,430.887262 C399.513645,430.692262 399.196645,430.692262 399.001645,430.887262 L383.205645,446.683262 L383.205645,425.834262 L391.658645,417.381262 C391.853645,417.186262 391.853645,416.869262 391.658645,416.674262 C391.463645,416.479262 391.146645,416.479262 390.951645,416.674262 L383.205645,424.420262 L383.205645,414.297262 C383.205645,414.021262 382.981645,413.797262 382.705645,413.797262 C382.429645,413.797262 382.205645,414.021262 382.205645,414.297262 L382.205645,425.485262 C382.162645,425.598262 382.162645,425.723262 382.205645,425.836262 L382.205645,429.151262 L374.318645,421.264262 C374.123645,421.069262 373.806645,421.069262 373.611645,421.264262 C373.416645,421.459262 373.416645,421.776262 373.611645,421.971262 L382.205645,430.565262 L382.205645,455.676262 L366.268645,439.739262 C366.073645,439.544262 365.756645,439.544262 365.561645,439.739262 C365.366645,439.934262 365.366645,440.251262 365.561645,440.446262 L382.205645,457.090262 L382.205645,472.009262 L347.993645,472.009262 L347.993645,402.584262 L417.418645,402.584262 L417.418645,472.009262 L417.417645,472.009262 Z" id="Shape-Copy-4" transform="translate(382.705645, 447.069262) rotate(-210.000000) translate(-382.705645, -447.069262) "></path>
                <path d="M81.1409203,206.861657 L10.7169203,206.861657 C10.4409203,206.861657 10.2169203,207.085657 10.2169203,207.361657 L10.2169203,277.786657 C10.2169203,278.062657 10.4409203,278.286657 10.7169203,278.286657 L45.4289203,278.286657 L45.4289203,296.822657 C45.4289203,296.825657 45.4309203,296.828657 45.4309203,296.831657 L30.8479203,296.831657 C30.5719203,296.831657 30.3479203,297.055657 30.3479203,297.331657 C30.3479203,297.607657 30.5719203,297.831657 30.8479203,297.831657 L61.0029203,297.831657 C61.2789203,297.831657 61.5029203,297.607657 61.5029203,297.331657 C61.5029203,297.055657 61.2789203,296.831657 61.0029203,296.831657 L46.4269203,296.831657 C46.4269203,296.828657 46.4289203,296.825657 46.4289203,296.822657 L46.4289203,278.286657 L81.1409203,278.286657 C81.4169203,278.286657 81.6409203,278.062657 81.6409203,277.786657 L81.6409203,207.361657 C81.6409203,207.085657 81.4179203,206.861657 81.1409203,206.861657 L81.1409203,206.861657 Z M80.6409203,277.286657 L46.4289203,277.286657 L46.4289203,253.374657 L62.9319203,236.871657 C63.1269203,236.676657 63.1269203,236.359657 62.9319203,236.164657 C62.7369203,235.969657 62.4199203,235.969657 62.2249203,236.164657 L46.4289203,251.960657 L46.4289203,231.111657 L54.8819203,222.658657 C55.0769203,222.463657 55.0769203,222.146657 54.8819203,221.951657 C54.6869203,221.756657 54.3699203,221.756657 54.1749203,221.951657 L46.4289203,229.697657 L46.4289203,219.574657 C46.4289203,219.298657 46.2049203,219.074657 45.9289203,219.074657 C45.6529203,219.074657 45.4289203,219.298657 45.4289203,219.574657 L45.4289203,230.762657 C45.3859203,230.875657 45.3859203,231.000657 45.4289203,231.113657 L45.4289203,234.428657 L37.5419203,226.541657 C37.3469203,226.346657 37.0299203,226.346657 36.8349203,226.541657 C36.6399203,226.736657 36.6399203,227.053657 36.8349203,227.248657 L45.4289203,235.842657 L45.4289203,260.953657 L29.4919203,245.016657 C29.2969203,244.821657 28.9799203,244.821657 28.7849203,245.016657 C28.5899203,245.211657 28.5899203,245.528657 28.7849203,245.723657 L45.4289203,262.367657 L45.4289203,277.286657 L11.2169203,277.286657 L11.2169203,207.861657 L80.6419203,207.861657 L80.6419203,277.286657 L80.6409203,277.286657 Z" id="Shape-Copy-5" transform="translate(45.928920, 252.346657) rotate(-90.000000) translate(-45.928920, -252.346657) "></path>
            </g>
            <g id="circle" transform="translate(106.000000, 20.000000)" fill="#3A93C4" sketch:type="MSShapeGroup">
                <path d="M52.7581708,77.4751395 C70.8821708,77.3281395 85.5821708,62.5441395 85.5821708,44.3871395 C85.5821708,26.1381395 70.7351708,11.2921395 52.4871708,11.2921395 C34.2391708,11.2921395 19.3921708,26.1391395 19.3921708,44.3871395 C19.3921708,62.3911395 33.8461708,77.0731395 51.7581708,77.4641395 L51.7581708,100.75914 C51.7581708,100.76214 51.7601708,100.76514 51.7601708,100.76814 L37.1771708,100.76814 C36.9011708,100.76814 36.6771708,100.99214 36.6771708,101.26814 C36.6771708,101.54414 36.9011708,101.76814 37.1771708,101.76814 L67.3321708,101.76814 C67.6081708,101.76814 67.8321708,101.54414 67.8321708,101.26814 C67.8321708,100.99214 67.6081708,100.76814 67.3321708,100.76814 L52.7561708,100.76814 C52.7561708,100.76514 52.7581708,100.76214 52.7581708,100.75914 L52.7581708,77.4751395 L52.7581708,77.4751395 Z M20.3921708,44.3871395 C20.3921708,26.6901395 34.7901708,12.2921395 52.4871708,12.2921395 C70.1841708,12.2921395 84.5821708,26.6901395 84.5821708,44.3871395 C84.5821708,61.9931395 70.3301708,76.3281395 52.7581708,76.4751395 L52.7581708,57.3111395 L69.2611708,40.8081395 C69.4561708,40.6131395 69.4561708,40.2961395 69.2611708,40.1011395 C69.0661708,39.9061395 68.7491708,39.9061395 68.5541708,40.1011395 L52.7581708,55.8971395 L52.7581708,35.0481395 L61.2111708,26.5951395 C61.4061708,26.4001395 61.4061708,26.0831395 61.2111708,25.8881395 C61.0161708,25.6931395 60.6991708,25.6931395 60.5041708,25.8881395 L52.7581708,33.6341395 L52.7581708,23.5111395 C52.7581708,23.2351395 52.5341708,23.0111395 52.2581708,23.0111395 C51.9821708,23.0111395 51.7581708,23.2351395 51.7581708,23.5111395 L51.7581708,34.7021395 C51.7171708,34.8141395 51.7171708,34.9361395 51.7581708,35.0481395 L51.7581708,38.3651395 L43.8711708,30.4781395 C43.6761708,30.2831395 43.3591708,30.2831395 43.1641708,30.4781395 C42.9691708,30.6731395 42.9691708,30.9901395 43.1641708,31.1851395 L51.7581708,39.7791395 L51.7581708,64.8901395 L35.8221708,48.9531395 C35.6271708,48.7581395 35.3101708,48.7581395 35.1151708,48.9531395 C34.9201708,49.1481395 34.9201708,49.4651395 35.1151708,49.6601395 L51.7591708,66.3041395 L51.7591708,76.4641395 C34.3971708,76.0741395 20.3921708,61.8401395 20.3921708,44.3871395 L20.3921708,44.3871395 Z" id="Shape-Copy-6" transform="translate(52.487171, 56.530140) rotate(-30.000000) translate(-52.487171, -56.530140) "></path>
                <path d="M389.068898,271.834229 C407.192898,271.687229 421.892898,256.903229 421.892898,238.746229 C421.892898,220.497229 407.045898,205.651229 388.797898,205.651229 C370.549898,205.651229 355.702898,220.498229 355.702898,238.746229 C355.702898,256.750229 370.156898,271.432229 388.068898,271.823229 L388.068898,295.118229 C388.068898,295.121229 388.070898,295.124229 388.070898,295.127229 L373.487898,295.127229 C373.211898,295.127229 372.987898,295.351229 372.987898,295.627229 C372.987898,295.903229 373.211898,296.127229 373.487898,296.127229 L403.642898,296.127229 C403.918898,296.127229 404.142898,295.903229 404.142898,295.627229 C404.142898,295.351229 403.918898,295.127229 403.642898,295.127229 L389.066898,295.127229 C389.066898,295.124229 389.068898,295.121229 389.068898,295.118229 L389.068898,271.834229 L389.068898,271.834229 Z M356.702898,238.746229 C356.702898,221.049229 371.100898,206.651229 388.797898,206.651229 C406.494898,206.651229 420.892898,221.049229 420.892898,238.746229 C420.892898,256.352229 406.640898,270.687229 389.068898,270.834229 L389.068898,251.670229 L405.571898,235.167229 C405.766898,234.972229 405.766898,234.655229 405.571898,234.460229 C405.376898,234.265229 405.059898,234.265229 404.864898,234.460229 L389.068898,250.256229 L389.068898,229.407229 L397.521898,220.954229 C397.716898,220.759229 397.716898,220.442229 397.521898,220.247229 C397.326898,220.052229 397.009898,220.052229 396.814898,220.247229 L389.068898,227.993229 L389.068898,217.870229 C389.068898,217.594229 388.844898,217.370229 388.568898,217.370229 C388.292898,217.370229 388.068898,217.594229 388.068898,217.870229 L388.068898,229.061229 C388.027898,229.173229 388.027898,229.295229 388.068898,229.407229 L388.068898,232.724229 L380.181898,224.837229 C379.986898,224.642229 379.669898,224.642229 379.474898,224.837229 C379.279898,225.032229 379.279898,225.349229 379.474898,225.544229 L388.068898,234.138229 L388.068898,259.249229 L372.132898,243.312229 C371.937898,243.117229 371.620898,243.117229 371.425898,243.312229 C371.230898,243.507229 371.230898,243.824229 371.425898,244.019229 L388.069898,260.663229 L388.069898,270.823229 C370.707898,270.433229 356.702898,256.199229 356.702898,238.746229 L356.702898,238.746229 Z" id="Shape-Copy-7" transform="translate(388.797898, 250.889229) rotate(-270.000000) translate(-388.797898, -250.889229) "></path>
                <path d="M52.5266387,465.658318 C70.6506387,465.511318 85.3506387,450.727318 85.3506387,432.570318 C85.3506387,414.321318 70.5036387,399.475318 52.2556387,399.475318 C34.0076387,399.475318 19.1606387,414.322318 19.1606387,432.570318 C19.1606387,450.574318 33.6146387,465.256318 51.5266387,465.647318 L51.5266387,488.942318 C51.5266387,488.945318 51.5286387,488.948318 51.5286387,488.951318 L36.9456387,488.951318 C36.6696387,488.951318 36.4456387,489.175318 36.4456387,489.451318 C36.4456387,489.727318 36.6696387,489.951318 36.9456387,489.951318 L67.1006387,489.951318 C67.3766387,489.951318 67.6006387,489.727318 67.6006387,489.451318 C67.6006387,489.175318 67.3766387,488.951318 67.1006387,488.951318 L52.5246387,488.951318 C52.5246387,488.948318 52.5266387,488.945318 52.5266387,488.942318 L52.5266387,465.658318 L52.5266387,465.658318 Z M20.1606387,432.570318 C20.1606387,414.873318 34.5586387,400.475318 52.2556387,400.475318 C69.9526387,400.475318 84.3506387,414.873318 84.3506387,432.570318 C84.3506387,450.176318 70.0986387,464.511318 52.5266387,464.658318 L52.5266387,445.494318 L69.0296387,428.991318 C69.2246387,428.796318 69.2246387,428.479318 69.0296387,428.284318 C68.8346387,428.089318 68.5176387,428.089318 68.3226387,428.284318 L52.5266387,444.080318 L52.5266387,423.231318 L60.9796387,414.778318 C61.1746387,414.583318 61.1746387,414.266318 60.9796387,414.071318 C60.7846387,413.876318 60.4676387,413.876318 60.2726387,414.071318 L52.5266387,421.817318 L52.5266387,411.694318 C52.5266387,411.418318 52.3026387,411.194318 52.0266387,411.194318 C51.7506387,411.194318 51.5266387,411.418318 51.5266387,411.694318 L51.5266387,422.885318 C51.4856387,422.997318 51.4856387,423.119318 51.5266387,423.231318 L51.5266387,426.548318 L43.6396387,418.661318 C43.4446387,418.466318 43.1276387,418.466318 42.9326387,418.661318 C42.7376387,418.856318 42.7376387,419.173318 42.9326387,419.368318 L51.5266387,427.962318 L51.5266387,453.073318 L35.5906387,437.136318 C35.3956387,436.941318 35.0786387,436.941318 34.8836387,437.136318 C34.6886387,437.331318 34.6886387,437.648318 34.8836387,437.843318 L51.5276387,454.487318 L51.5276387,464.647318 C34.1656387,464.257318 20.1606387,450.023318 20.1606387,432.570318 L20.1606387,432.570318 Z" id="Shape-Copy-8" transform="translate(52.255639, 444.713318) rotate(-150.000000) translate(-52.255639, -444.713318) "></path>
            </g>
            <g id="real" transform="translate(20.000000, 0.000000)" fill="#FF6969" sketch:type="MSShapeGroup">
                <path d="M86.9874422,385.323065 C86.9874422,376.515065 83.6074422,364.764065 78.3764422,355.386065 C72.1684422,344.257065 64.4704422,338.128065 56.6994422,338.128065 C39.6594422,338.128065 24.7064422,367.543065 24.7064422,385.323065 C24.7064422,402.326065 38.4064422,416.182065 55.3474422,416.451065 L55.3474422,428.098065 L40.7644422,428.098065 C40.4884422,428.098065 40.2644422,428.322065 40.2644422,428.598065 C40.2644422,428.874065 40.4884422,429.098065 40.7644422,429.098065 L70.9194422,429.098065 C71.1954422,429.098065 71.4194422,428.874065 71.4194422,428.598065 C71.4194422,428.322065 71.1954422,428.098065 70.9194422,428.098065 L56.3464422,428.098065 L56.3464422,416.451065 C73.2874422,416.182065 86.9874422,402.326065 86.9874422,385.323065 L86.9874422,385.323065 Z M25.7064422,385.323065 C25.7064422,367.947065 40.7184422,339.128065 56.6994422,339.128065 C73.6194422,339.128065 85.9874422,369.509065 85.9874422,385.323065 C85.9874422,401.775065 72.7354422,415.182065 56.3464422,415.451065 L56.3464422,396.643065 L72.8494422,380.140065 C73.0444422,379.945065 73.0444422,379.628065 72.8494422,379.433065 C72.6544422,379.238065 72.3374422,379.238065 72.1424422,379.433065 L56.3464422,395.229065 L56.3464422,374.380065 L64.7994422,365.927065 C64.9944422,365.732065 64.9944422,365.415065 64.7994422,365.220065 C64.6044422,365.025065 64.2874422,365.025065 64.0924422,365.220065 L56.3464422,372.966065 L56.3464422,362.843065 C56.3464422,362.567065 56.1224422,362.343065 55.8464422,362.343065 C55.5704422,362.343065 55.3464422,362.567065 55.3464422,362.843065 L55.3464422,374.031065 C55.3034422,374.144065 55.3034422,374.269065 55.3464422,374.382065 L55.3464422,377.697065 L47.4584422,369.810065 C47.2634422,369.615065 46.9464422,369.615065 46.7514422,369.810065 C46.5564422,370.005065 46.5564422,370.322065 46.7514422,370.517065 L55.3464422,379.111065 L55.3464422,404.222065 L39.4094422,388.285065 C39.2144422,388.090065 38.8974422,388.090065 38.7024422,388.285065 C38.5074422,388.480065 38.5074422,388.797065 38.7024422,388.992065 L55.3474422,405.637065 L55.3474422,415.452065 C38.9584422,415.182065 25.7064422,401.775065 25.7064422,385.323065 L25.7064422,385.323065 Z" id="Shape-Copy" transform="translate(55.846942, 383.613065) rotate(-120.000000) translate(-55.846942, -383.613065) "></path>
                <path d="M475.499329,160.185393 C475.499329,151.377393 472.119329,139.626393 466.888329,130.248393 C460.680329,119.119393 452.982329,112.990393 445.211329,112.990393 C428.171329,112.990393 413.218329,142.405393 413.218329,160.185393 C413.218329,177.188393 426.918329,191.044393 443.859329,191.313393 L443.859329,202.960393 L429.276329,202.960393 C429.000329,202.960393 428.776329,203.184393 428.776329,203.460393 C428.776329,203.736393 429.000329,203.960393 429.276329,203.960393 L459.431329,203.960393 C459.707329,203.960393 459.931329,203.736393 459.931329,203.460393 C459.931329,203.184393 459.707329,202.960393 459.431329,202.960393 L444.858329,202.960393 L444.858329,191.313393 C461.799329,191.044393 475.499329,177.188393 475.499329,160.185393 L475.499329,160.185393 Z M414.218329,160.185393 C414.218329,142.809393 429.230329,113.990393 445.211329,113.990393 C462.131329,113.990393 474.499329,144.371393 474.499329,160.185393 C474.499329,176.637393 461.247329,190.044393 444.858329,190.313393 L444.858329,171.505393 L461.361329,155.002393 C461.556329,154.807393 461.556329,154.490393 461.361329,154.295393 C461.166329,154.100393 460.849329,154.100393 460.654329,154.295393 L444.858329,170.091393 L444.858329,149.242393 L453.311329,140.789393 C453.506329,140.594393 453.506329,140.277393 453.311329,140.082393 C453.116329,139.887393 452.799329,139.887393 452.604329,140.082393 L444.858329,147.828393 L444.858329,137.705393 C444.858329,137.429393 444.634329,137.205393 444.358329,137.205393 C444.082329,137.205393 443.858329,137.429393 443.858329,137.705393 L443.858329,148.893393 C443.815329,149.006393 443.815329,149.131393 443.858329,149.244393 L443.858329,152.559393 L435.970329,144.672393 C435.775329,144.477393 435.458329,144.477393 435.263329,144.672393 C435.068329,144.867393 435.068329,145.184393 435.263329,145.379393 L443.858329,153.973393 L443.858329,179.084393 L427.921329,163.147393 C427.726329,162.952393 427.409329,162.952393 427.214329,163.147393 C427.019329,163.342393 427.019329,163.659393 427.214329,163.854393 L443.859329,180.499393 L443.859329,190.314393 C427.470329,190.044393 414.218329,176.637393 414.218329,160.185393 L414.218329,160.185393 Z" id="Shape-Copy-2" transform="translate(444.358829, 158.475393) rotate(-300.000000) translate(-444.358829, -158.475393) "></path>
                <path d="M475.425817,384.450393 C475.425817,375.642393 472.045817,363.891393 466.814817,354.513393 C460.606817,343.384393 452.908817,337.255393 445.137817,337.255393 C428.097817,337.255393 413.144817,366.670393 413.144817,384.450393 C413.144817,401.453393 426.844817,415.309393 443.785817,415.578393 L443.785817,427.225393 L429.202817,427.225393 C428.926817,427.225393 428.702817,427.449393 428.702817,427.725393 C428.702817,428.001393 428.926817,428.225393 429.202817,428.225393 L459.357817,428.225393 C459.633817,428.225393 459.857817,428.001393 459.857817,427.725393 C459.857817,427.449393 459.633817,427.225393 459.357817,427.225393 L444.784817,427.225393 L444.784817,415.578393 C461.725817,415.309393 475.425817,401.453393 475.425817,384.450393 L475.425817,384.450393 Z M414.144817,384.450393 C414.144817,367.074393 429.156817,338.255393 445.137817,338.255393 C462.057817,338.255393 474.425817,368.636393 474.425817,384.450393 C474.425817,400.902393 461.173817,414.309393 444.784817,414.578393 L444.784817,395.770393 L461.287817,379.267393 C461.482817,379.072393 461.482817,378.755393 461.287817,378.560393 C461.092817,378.365393 460.775817,378.365393 460.580817,378.560393 L444.784817,394.356393 L444.784817,373.507393 L453.237817,365.054393 C453.432817,364.859393 453.432817,364.542393 453.237817,364.347393 C453.042817,364.152393 452.725817,364.152393 452.530817,364.347393 L444.784817,372.093393 L444.784817,361.970393 C444.784817,361.694393 444.560817,361.470393 444.284817,361.470393 C444.008817,361.470393 443.784817,361.694393 443.784817,361.970393 L443.784817,373.158393 C443.741817,373.271393 443.741817,373.396393 443.784817,373.509393 L443.784817,376.824393 L435.896817,368.937393 C435.701817,368.742393 435.384817,368.742393 435.189817,368.937393 C434.994817,369.132393 434.994817,369.449393 435.189817,369.644393 L443.784817,378.238393 L443.784817,403.349393 L427.847817,387.412393 C427.652817,387.217393 427.335817,387.217393 427.140817,387.412393 C426.945817,387.607393 426.945817,387.924393 427.140817,388.119393 L443.785817,404.764393 L443.785817,414.579393 C427.396817,414.309393 414.144817,400.902393 414.144817,384.450393 L414.144817,384.450393 Z" id="Shape-Copy-9" transform="translate(444.285317, 382.740393) rotate(-240.000000) translate(-444.285317, -382.740393) "></path>
                <path d="M280.897114,496.903203 C280.897114,488.095203 277.517114,476.344203 272.286114,466.966203 C266.078114,455.837203 258.380114,449.708203 250.609114,449.708203 C233.569114,449.708203 218.616114,479.123203 218.616114,496.903203 C218.616114,513.906203 232.316114,527.762203 249.257114,528.031203 L249.257114,539.678203 L234.674114,539.678203 C234.398114,539.678203 234.174114,539.902203 234.174114,540.178203 C234.174114,540.454203 234.398114,540.678203 234.674114,540.678203 L264.829114,540.678203 C265.105114,540.678203 265.329114,540.454203 265.329114,540.178203 C265.329114,539.902203 265.105114,539.678203 264.829114,539.678203 L250.256114,539.678203 L250.256114,528.031203 C267.197114,527.762203 280.897114,513.906203 280.897114,496.903203 L280.897114,496.903203 Z M219.616114,496.903203 C219.616114,479.527203 234.628114,450.708203 250.609114,450.708203 C267.529114,450.708203 279.897114,481.089203 279.897114,496.903203 C279.897114,513.355203 266.645114,526.762203 250.256114,527.031203 L250.256114,508.223203 L266.759114,491.720203 C266.954114,491.525203 266.954114,491.208203 266.759114,491.013203 C266.564114,490.818203 266.247114,490.818203 266.052114,491.013203 L250.256114,506.809203 L250.256114,485.960203 L258.709114,477.507203 C258.904114,477.312203 258.904114,476.995203 258.709114,476.800203 C258.514114,476.605203 258.197114,476.605203 258.002114,476.800203 L250.256114,484.546203 L250.256114,474.423203 C250.256114,474.147203 250.032114,473.923203 249.756114,473.923203 C249.480114,473.923203 249.256114,474.147203 249.256114,474.423203 L249.256114,485.611203 C249.213114,485.724203 249.213114,485.849203 249.256114,485.962203 L249.256114,489.277203 L241.368114,481.390203 C241.173114,481.195203 240.856114,481.195203 240.661114,481.390203 C240.466114,481.585203 240.466114,481.902203 240.661114,482.097203 L249.256114,490.691203 L249.256114,515.802203 L233.319114,499.865203 C233.124114,499.670203 232.807114,499.670203 232.612114,499.865203 C232.417114,500.060203 232.417114,500.377203 232.612114,500.572203 L249.257114,517.217203 L249.257114,527.032203 C232.868114,526.762203 219.616114,513.355203 219.616114,496.903203 L219.616114,496.903203 Z" id="Shape-Copy-10" transform="translate(249.756614, 495.193203) rotate(-180.000000) translate(-249.756614, -495.193203) "></path>
                <path d="M87.0250565,159.763836 C87.0250565,150.955836 83.6450565,139.204836 78.4140565,129.826836 C72.2060565,118.697836 64.5080565,112.568836 56.7370565,112.568836 C39.6970565,112.568836 24.7440565,141.983836 24.7440565,159.763836 C24.7440565,176.766836 38.4440565,190.622836 55.3850565,190.891836 L55.3850565,202.538836 L40.8020565,202.538836 C40.5260565,202.538836 40.3020565,202.762836 40.3020565,203.038836 C40.3020565,203.314836 40.5260565,203.538836 40.8020565,203.538836 L70.9570565,203.538836 C71.2330565,203.538836 71.4570565,203.314836 71.4570565,203.038836 C71.4570565,202.762836 71.2330565,202.538836 70.9570565,202.538836 L56.3840565,202.538836 L56.3840565,190.891836 C73.3250565,190.622836 87.0250565,176.766836 87.0250565,159.763836 L87.0250565,159.763836 Z M25.7440565,159.763836 C25.7440565,142.387836 40.7560565,113.568836 56.7370565,113.568836 C73.6570565,113.568836 86.0250565,143.949836 86.0250565,159.763836 C86.0250565,176.215836 72.7730565,189.622836 56.3840565,189.891836 L56.3840565,171.083836 L72.8870565,154.580836 C73.0820565,154.385836 73.0820565,154.068836 72.8870565,153.873836 C72.6920565,153.678836 72.3750565,153.678836 72.1800565,153.873836 L56.3840565,169.669836 L56.3840565,148.820836 L64.8370565,140.367836 C65.0320565,140.172836 65.0320565,139.855836 64.8370565,139.660836 C64.6420565,139.465836 64.3250565,139.465836 64.1300565,139.660836 L56.3840565,147.406836 L56.3840565,137.283836 C56.3840565,137.007836 56.1600565,136.783836 55.8840565,136.783836 C55.6080565,136.783836 55.3840565,137.007836 55.3840565,137.283836 L55.3840565,148.471836 C55.3410565,148.584836 55.3410565,148.709836 55.3840565,148.822836 L55.3840565,152.137836 L47.4960565,144.250836 C47.3010565,144.055836 46.9840565,144.055836 46.7890565,144.250836 C46.5940565,144.445836 46.5940565,144.762836 46.7890565,144.957836 L55.3840565,153.551836 L55.3840565,178.662836 L39.4470565,162.725836 C39.2520565,162.530836 38.9350565,162.530836 38.7400565,162.725836 C38.5450565,162.920836 38.5450565,163.237836 38.7400565,163.432836 L55.3850565,180.077836 L55.3850565,189.892836 C38.9960565,189.622836 25.7440565,176.215836 25.7440565,159.763836 L25.7440565,159.763836 Z" id="Shape-Copy-11" transform="translate(55.884556, 158.053836) rotate(-60.000000) translate(-55.884556, -158.053836) "></path>
                <path d="M281.281,47.695 C281.281,38.887 277.901,27.136 272.67,17.758 C266.462,6.629 258.764,0.5 250.993,0.5 C233.953,0.5 219,29.915 219,47.695 C219,64.698 232.7,78.554 249.641,78.823 L249.641,90.47 L235.058,90.47 C234.782,90.47 234.558,90.694 234.558,90.97 C234.558,91.246 234.782,91.47 235.058,91.47 L265.213,91.47 C265.489,91.47 265.713,91.246 265.713,90.97 C265.713,90.694 265.489,90.47 265.213,90.47 L250.64,90.47 L250.64,78.823 C267.581,78.554 281.281,64.698 281.281,47.695 L281.281,47.695 Z M220,47.695 C220,30.319 235.012,1.5 250.993,1.5 C267.913,1.5 280.281,31.881 280.281,47.695 C280.281,64.147 267.029,77.554 250.64,77.823 L250.64,59.015 L267.143,42.512 C267.338,42.317 267.338,42 267.143,41.805 C266.948,41.61 266.631,41.61 266.436,41.805 L250.64,57.601 L250.64,36.752 L259.093,28.299 C259.288,28.104 259.288,27.787 259.093,27.592 C258.898,27.397 258.581,27.397 258.386,27.592 L250.64,35.338 L250.64,25.215 C250.64,24.939 250.416,24.715 250.14,24.715 C249.864,24.715 249.64,24.939 249.64,25.215 L249.64,36.403 C249.597,36.516 249.597,36.641 249.64,36.754 L249.64,40.069 L241.752,32.182 C241.557,31.987 241.24,31.987 241.045,32.182 C240.85,32.377 240.85,32.694 241.045,32.889 L249.64,41.483 L249.64,66.594 L233.703,50.657 C233.508,50.462 233.191,50.462 232.996,50.657 C232.801,50.852 232.801,51.169 232.996,51.364 L249.641,68.009 L249.641,77.824 C233.252,77.554 220,64.147 220,47.695 L220,47.695 Z" id="Shape-Copy-12"></path>
            </g>
            <circle id="earth" stroke="#243746" fill="#FFFFFF" sketch:type="MSShapeGroup" transform="translate(270.250000, 270.433013) rotate(-90.000000) translate(-270.250000, -270.433013) " cx="270.25" cy="270.433013" r="181"></circle>
        </g>
    </g>
</svg>