<?xml version="1.0" encoding="utf-8"?>
<!-- Generator: Adobe Illustrator 16.0.0, SVG Export Plug-In . SVG Version: 6.00 Build 0)  -->
<!DOCTYPE svg PUBLIC "-//W3C//DTD SVG 1.1//EN" "http://www.w3.org/Graphics/SVG/1.1/DTD/svg11.dtd">
<svg version="1.1" id="Layer_1" xmlns="http://www.w3.org/2000/svg" xmlns:xlink="http://www.w3.org/1999/xlink" x="0px" y="0px"
	 width="522.14px" height="337px" viewBox="73.14 210.445 522.14 337" enable-background="new 73.14 210.445 522.14 337"
	 xml:space="preserve">
<path fill="#243746" d="M486.492,324.939c-24.793,0-47.604,8.429-65.915,22.448c-8.055-32.55-7.774-62.397-7.763-63.082
	l-0.125-35.354l21.085,0.012c3.221,0,5.78-2.458,6.131-5.583c0.144-0.256,0.357-0.441,0.465-0.721
	c5.394-13.715,20.966-20.472,34.675-15.12c13.733,5.399,20.508,20.954,15.12,34.681c-2.613,6.649-7.655,11.888-14.197,14.745
	c-3.167,1.381-4.619,5.083-3.232,8.256c1.03,2.357,3.334,3.762,5.75,3.762c0.834,0,1.685-0.172,2.507-0.53
	c9.607-4.185,17.007-11.875,20.841-21.65c7.917-20.15-2.036-43.003-22.198-50.938c-19.591-7.679-41.688,1.53-50.183,20.561
	l-23.055-0.018c-1.667,0-3.263,0.661-4.441,1.851c-1.178,1.173-1.839,2.78-1.833,4.447l0.137,38.568l-138.354-0.447l0.071-19.746
	c5.453-1.655,16.691-4.167,29.967,0.102c1.851,0.619,3.852,0.161,5.458-0.929c0.894-0.613,8.751-6.286,8.203-14.376
	c-0.238-3.554-2.19-8.649-10.126-12.62c-0.601-0.292-1.244-0.518-1.91-0.619c-0.321-0.06-32.997-4.786-65.136-10.977
	c-2.113-0.381-4.25,0.273-5.727,1.833c-1.208,1.256-11.739,12.728-9.566,25.27c0.81,4.691,3.774,11.298,14.233,16.495
	c0.917,0.31,8.197,2.399,22.049-0.845l-0.065,20.108l-22.382,48.021c-12.316-4.852-25.687-7.608-39.706-7.608
	c-59.986,0-108.787,48.807-108.787,108.799c0,59.986,48.807,108.787,108.787,108.787c53.058,0,97.305-38.198,106.835-88.523
	l11.394,0.012c2.185,12.84,12.257,22.93,25.062,25.174l1.083,40.218h-9.744c-3.471,0-8.811,2.977-8.811,6.446v13.495
	c0,3.465,5.346,3.87,8.811,3.87h31.484c3.471,0,7.321-0.405,7.321-3.87v-13.495c0-3.47-3.856-6.446-7.321-6.446h-9.191l-1.095-40.67
	c13.56-3.279,23.697-15.388,23.697-29.937c0-10.78-5.56-20.228-13.936-25.764l48.802-111.115
	c1.256,12.721,3.637,28.549,8.113,44.765c-19.799,19.715-32.079,46.979-32.079,77.059c0,59.986,48.807,108.788,108.799,108.788
	c59.98,0,108.787-48.802,108.787-108.788C595.28,373.746,546.473,324.939,486.492,324.939z M232.112,253.636
	c-0.054,0-0.071,0.012-0.06,0.024c-5.846-2.977-6.381-6-6.554-7.006c-0.696-3.965,1.994-8.864,4.244-11.989
	c27.9,5.28,55.26,9.37,60.963,10.203c1.779,1.006,2.298,1.714,2.375,1.714c-0.071,0.322-0.381,0.81-0.815,1.333
	c-20.258-5.292-35.955,1.06-38.86,2.357C240.076,254.666,232.856,253.648,232.112,253.636z M187.263,529.989
	c-53.075,0-96.244-43.182-96.244-96.251c0-53.075,43.175-96.257,96.244-96.257c12.132,0,23.692,2.352,34.39,6.459l-47.414,101.751
	c-0.905,1.935-0.756,3.869,0.398,5.686c1.149,1.804,3.138,2.547,5.286,2.547c0.006,0,0.006,0,0.013,0l101.405,0.084
	C272.001,497.374,233.392,529.989,187.263,529.989z M283.104,442.043l-93.341,0.101l43.343-93.024
	c30.008,16.317,50.42,48.134,50.42,84.625C283.526,436.542,283.341,439.298,283.104,442.043z M305.789,442.019l-10.138,0.012
	c0.209-2.744,0.417-5.494,0.417-8.292c0-41.515-23.389-77.643-57.671-95.983l17.358-37.247l60.891,124.324
	C311.289,429.137,307.355,435.096,305.789,442.019z M354.251,448.841c0,10.126-8.239,18.37-18.37,18.37
	c-10.126,0-18.371-8.244-18.371-18.37s8.245-18.37,18.371-18.37C346.006,430.471,354.251,438.715,354.251,448.841z M341.173,418.463
	c-0.232-0.042-0.471-0.06-0.703-0.107l-1.137-41.818h9.732c3.471,0,5.686-0.881,5.686-4.346v-13.501
	c0-3.464-2.215-5.965-5.686-5.965h-31.49c-3.464,0-4.5,2.5-4.5,5.965v13.501c0,3.464,1.036,4.346,4.5,4.346h9.203l1.155,42.562
	c-0.036,0.012-0.071,0.012-0.107,0.023l-62.183-126.985l131.051-0.655L341.173,418.463z M486.492,529.989
	c-53.081,0-96.263-43.182-96.263-96.251c0-24.216,9.061-46.312,23.883-63.254c11.298,31.871,31.794,62.278,68.981,70.565
	c0.458,0.101,0.916,0.143,1.369,0.143c2.869,0,5.464-1.982,6.107-4.911c0.756-3.375-1.369-6.721-4.751-7.482
	c-33.663-7.501-51.789-37.574-61.569-68.362c16.799-14.281,38.509-22.954,62.242-22.954c53.069,0,96.245,43.182,96.245,96.257
	C582.738,486.808,539.562,529.989,486.492,529.989z"/>
</svg>
