<?xml version="1.0" encoding="utf-8"?>

<!-- The icon can be used freely in both personal and commercial projects with no attribution required, but always appreciated. 
You may NOT sub-license, resell, rent, redistribute or otherwise transfer the icon without express written permission from iconmonstr.com -->

<!DOCTYPE svg PUBLIC "-//W3C//DTD SVG 1.1//EN" "http://www.w3.org/Graphics/SVG/1.1/DTD/svg11.dtd">
<svg version="1.1" xmlns="http://www.w3.org/2000/svg" xmlns:xlink="http://www.w3.org/1999/xlink" x="0px" y="0px"
	 width="512px" height="512px" viewBox="0 0 512 512" enable-background="new 0 0 512 512" xml:space="preserve">
<path id="wireless-3-icon" d="M256,329.74c12.348,0,24.22,3.091,34.734,8.905L256,373.38l-34.734-34.734
	C231.78,332.831,243.652,329.74,256,329.74 M256,309.74c-25.384,0-48.365,10.289-65,26.924l65,65l65-65
	C304.365,320.029,281.384,309.74,256,309.74L256,309.74z M255.999,228.938c39.404,0,76.791,13.104,107.188,37.252l-19.188,19.188
	c-25.199-19.152-55.803-29.518-88-29.518c-32.196,0-62.8,10.365-87.999,29.519l-19.189-19.189
	C179.208,242.042,216.596,228.938,255.999,228.938 M255.999,208.938c-53.219,0-101.4,21.571-136.277,56.447l47.322,47.322
	c22.766-22.766,54.216-36.847,88.955-36.847c34.74,0,66.19,14.081,88.956,36.847l47.321-47.322
	C357.4,230.51,309.219,208.938,255.999,208.938L255.999,208.938z M256,130.336c66.397,0,128.753,23.952,177.204,65.84l-18.67,18.67
	c-44.229-37.658-99.803-58.182-158.534-58.182s-114.305,20.523-158.534,58.182l-18.67-18.67
	C127.161,154.363,189.489,130.336,256,130.336 M256,110.336c-80.448,0-153.28,32.608-206,85.328l46.901,46.901
	c40.717-40.718,96.967-65.901,159.099-65.901s118.382,25.184,159.099,65.901L462,195.664
	C409.28,142.944,336.448,110.336,256,110.336L256,110.336z"/>
</svg>
