<?xml version="1.0" encoding="UTF-8" standalone="no"?>
<svg width="64px" height="64px" viewBox="0 0 64 64" version="1.1" xmlns="http://www.w3.org/2000/svg" xmlns:xlink="http://www.w3.org/1999/xlink" xmlns:sketch="http://www.bohemiancoding.com/sketch/ns">
    <!-- Generator: Sketch 3.3.3 (12081) - http://www.bohemiancoding.com/sketch -->
    <title>vehicle92</title>
    <desc>Created with Sketch.</desc>
    <defs></defs>
    <g id="Page-1" stroke="none" stroke-width="1" fill="none" fill-rule="evenodd" sketch:type="MSPage">
        <g id="Desktop" sketch:type="MSArtboardGroup" transform="translate(-888.000000, -2798.000000)" fill="#000000">
            <g id="vehicle92" sketch:type="MSLayerGroup" transform="translate(888.000000, 2798.000000)">
                <path d="M34.028,27.406 L48.642,14.403 L35.733,29.177 C36.126,29.877 36.37,30.673 36.37,31.533 C36.37,34.207 34.202,36.369 31.532,36.369 C28.86,36.369 26.695,34.207 26.695,31.533 C26.695,28.861 28.86,26.696 31.532,26.696 C32.452,26.696 33.297,26.964 34.028,27.406 L34.028,27.406 Z M63.067,31.533 C63.067,48.92 48.921,63.067 31.534,63.067 C14.147,63.067 0,48.92 0,31.533 C0,14.146 14.147,0 31.534,0 C48.921,0 63.067,14.146 63.067,31.533 L63.067,31.533 Z M56.163,42.228 L52.2,40.618 L52.664,39.472 L56.612,41.08 C57.606,38.476 58.2,35.684 58.332,32.769 L54.099,32.769 L54.099,30.298 L58.332,30.298 C58.193,27.268 57.565,24.372 56.498,21.683 L52.563,23.339 L52.084,22.201 L56.02,20.545 C53.278,14.461 48.351,9.572 42.226,6.902 L40.614,10.865 L39.473,10.401 L41.08,6.453 C38.482,5.457 35.682,4.865 32.767,4.731 L32.767,8.966 L30.301,8.966 L30.301,4.732 C27.271,4.87 24.375,5.501 21.687,6.566 L23.343,10.5 L22.205,10.979 L20.549,7.045 C17.936,8.222 15.554,9.809 13.463,11.717 L16.452,14.706 L14.707,16.451 L11.718,13.462 C9.737,15.631 8.094,18.112 6.904,20.84 L10.867,22.451 L10.403,23.594 L6.456,21.987 C5.46,24.589 4.867,27.383 4.734,30.298 L8.969,30.298 L8.969,32.765 L4.733,32.765 C4.871,35.796 5.502,38.691 6.567,41.38 L10.501,39.724 L10.98,40.863 L7.046,42.52 C8.223,45.133 9.809,47.515 11.717,49.605 L14.706,46.617 L16.451,48.362 L13.462,51.347 C18.238,55.708 24.571,58.398 31.534,58.398 C38.496,58.398 44.823,55.718 49.604,51.347 L46.616,48.362 L48.361,46.617 L51.347,49.605 C53.332,47.438 54.975,44.955 56.163,42.228 L56.163,42.228 Z M22.625,48.368 L40.444,48.368 L40.444,44.864 L22.625,44.864 L22.625,48.368 L22.625,48.368 Z" id="Shape" sketch:type="MSShapeGroup"></path>
            </g>
        </g>
    </g>
</svg>