<?xml version="1.0" encoding="UTF-8" standalone="no"?>
<svg width="173px" height="273px" viewBox="0 0 173 273" version="1.1" xmlns="http://www.w3.org/2000/svg" xmlns:xlink="http://www.w3.org/1999/xlink" xmlns:sketch="http://www.bohemiancoding.com/sketch/ns">
    <!-- Generator: Sketch 3.3.3 (12081) - http://www.bohemiancoding.com/sketch -->
    <title>Rectangle 67 + Oval 25 Copy 2 + Oval 28</title>
    <desc>Created with Sketch.</desc>
    <defs>
        <path id="path-1" d="M86.5,272.845978 C95.7342453,272.845978 173,134.272631 173,86.5 C173,38.7273691 134.272631,0 86.5,0 C38.7273691,0 0,38.7273691 0,86.5 C0,134.272631 77.2657547,272.845978 86.5,272.845978 Z"></path>
    </defs>
    <g id="index" stroke="none" stroke-width="1" fill="none" fill-rule="evenodd" sketch:type="MSPage">
        <g id="Rectangle-67-+-Oval-25-Copy-2-+-Oval-28" sketch:type="MSLayerGroup">
            <g id="Rectangle-67">
                <mask id="mask-2" sketch:name="Mask" fill="white">
                    <use xlink:href="#path-1"></use>
                </mask>
                <use id="Mask" fill="#4990E2" sketch:type="MSShapeGroup" xlink:href="#path-1"></use>
                <rect fill="#3C80CF" sketch:type="MSShapeGroup" mask="url(#mask-2)" x="87" y="0" width="164" height="283"></rect>
            </g>
            <path d="M17,89.0034928 C17,128.217639 57.2725677,164.495178 87.3345947,164.495178 C117.396622,164.495178 157.669184,128.217639 157.669184,89.0034928 C157.669184,49.7893466 126.179315,18 87.3345922,18 C48.4898695,18 17,49.7893466 17,89.0034928 Z" id="Oval-25-Copy-2" fill="#FFFFFF" sketch:type="MSShapeGroup"></path>
            <circle id="Oval-28" fill="#D0011B" sketch:type="MSShapeGroup" cx="87" cy="91" r="37"></circle>
        </g>
    </g>
</svg>