<?xml version="1.0" encoding="UTF-8" standalone="no"?>
<svg width="149px" height="149px" viewBox="0 0 149 149" version="1.1" xmlns="http://www.w3.org/2000/svg" xmlns:xlink="http://www.w3.org/1999/xlink" xmlns:sketch="http://www.bohemiancoding.com/sketch/ns">
    <!-- Generator: Sketch 3.3.3 (12081) - http://www.bohemiancoding.com/sketch -->
    <title>Group</title>
    <desc>Created with Sketch.</desc>
    <defs></defs>
    <g id="index" stroke="none" stroke-width="1" fill="none" fill-rule="evenodd" sketch:type="MSPage">
        <g id="Group" sketch:type="MSLayerGroup" transform="translate(3.000000, 3.000000)">
            <circle id="Oval-13" stroke="#4990E2" stroke-width="5" sketch:type="MSShapeGroup" cx="71.5" cy="71.5" r="71.5"></circle>
            <path d="M71.25,10.004516 C71.499642,10.0015082 71.7496449,10 72,10 C105.68937,10 133,37.3106303 133,71 C133,104.68937 105.68937,132 72,132 C71.7496449,132 71.499642,131.998492 71.25,131.995484 L71.25,10.004516 Z" id="Oval-29" fill-opacity="0.260841259" fill="#4990E2" sketch:type="MSShapeGroup"></path>
            <path d="M73.1788946,77.8727297 C72.6551141,78.0078986 72.1059042,78.079801 71.5399005,78.079801 C71.4975192,78.079801 71.455232,78.0793978 71.4130427,78.0785952 L71.4026998,78.079801 L71.4026998,78.0783904 C67.854155,78.0053609 65,75.1059425 65,71.5399005 C65,67.9738585 67.854155,65.0744401 71.4026998,65.0014106 L71.4026998,65 L71.4130427,65.0012058 C71.455232,65.0004031 71.4975192,65 71.5399005,65 C72.1059042,65 72.6551141,65.0719024 73.1788946,65.2070712 L127.5,71.5399005 L73.1788946,77.8727297 Z" id="Oval-13-Copy" fill="#4990E2" sketch:type="MSShapeGroup"></path>
            <path d="M48.1788946,52.8727297 C47.6551141,53.0078986 47.1059042,53.079801 46.5399005,53.079801 C46.4975192,53.079801 46.455232,53.0793978 46.4130427,53.0785952 L46.4026998,53.079801 L46.4026998,53.0783904 C42.854155,53.0053609 40,50.1059425 40,46.5399005 C40,42.9738585 42.854155,40.0744401 46.4026998,40.0014106 L46.4026998,40 L46.4130427,40.0012058 C46.455232,40.0004031 46.4975192,40 46.5399005,40 C47.1059042,40 47.6551141,40.0719024 48.1788946,40.2070712 L102.5,46.5399005 L48.1788946,52.8727297 Z" id="Oval-13-Copy-2" fill="#4990E2" sketch:type="MSShapeGroup" transform="translate(71.250000, 46.539900) rotate(-90.000000) translate(-71.250000, -46.539900) "></path>
        </g>
    </g>
</svg>