<?xml version="1.0" encoding="UTF-8" standalone="no"?>
<svg width="162px" height="103px" viewBox="0 0 162 103" version="1.1" xmlns="http://www.w3.org/2000/svg" xmlns:xlink="http://www.w3.org/1999/xlink" xmlns:sketch="http://www.bohemiancoding.com/sketch/ns">
    <!-- Generator: Sketch 3.3.3 (12081) - http://www.bohemiancoding.com/sketch -->
    <title>km_parcouru</title>
    <desc>Created with Sketch.</desc>
    <defs></defs>
    <g id="Page-1" stroke="none" stroke-width="1" fill="none" fill-rule="evenodd" sketch:type="MSPage">
        <g id="Desktop" sketch:type="MSArtboardGroup" transform="translate(-1023.000000, -3014.000000)" fill="#030101">
            <g id="km_parcouru" sketch:type="MSLayerGroup" transform="translate(1023.000000, 3014.000000)">
                <g id="index" sketch:type="MSShapeGroup">
                    <g id="Imported-Layers">
                        <path d="M130.117843,39.61872 C128.970788,39.61872 127.847406,39.69216 126.734783,39.81312 L118.130793,39.81312 C119.21759,39.15432 120.528203,38.53224 122.153018,38.05488 C128.086286,36.30744 138.952106,36.32904 157.012309,46.30392 L159.736834,41.3316 C143.718949,32.4864 130.440654,29.56392 120.287171,32.6916 C114.373272,34.49736 111.196811,37.92096 109.802267,39.80664 L108.521783,39.80664 L120.127917,19.66032 L130.117843,19.66032 L130.117843,13.99032 L110.028235,13.99032 L110.028235,19.66248 L113.61359,19.66248 L97.9013,46.95192 C89.68253,47.84184 80.110106,42.59088 73.148147,37.66824 C66.263664,32.7996 60.679032,27.39744 58.451636,25.14672 C60.655359,18.84816 62.226373,12.65112 62.643876,7.08912 C63.618765,6.17544 67.628078,5.05872 77.213415,8.83008 L79.272949,3.54672 C71.101525,0.33912 64.901401,-0.33264 60.857654,1.57464 C58.107304,2.86416 57.315341,4.8924 57.186217,5.28768 L57.04418,6.02424 C56.562115,14.54328 52.879917,25.02792 48.349802,34.99632 C36.082982,30.3048 23.553608,31.43664 22.852032,31.50576 L23.402963,37.152 C23.553608,37.13256 34.957447,36.12384 45.905046,40.15872 C45.511217,40.96224 45.110931,41.76576 44.717101,42.5628 C40.722853,40.68792 36.293885,39.61224 31.60882,39.61224 C14.467553,39.6144 0.524267,53.6112 0.524267,70.8156 C0.524267,88.02216 14.469705,102.01896 31.60882,102.01896 C48.750088,102.01896 62.697677,88.02216 62.697677,70.8156 C62.697677,60.3612 57.519788,51.11424 49.636742,45.44856 C50.120959,44.48304 50.605175,43.51104 51.089392,42.52608 C53.123101,43.65144 55.081488,44.9712 56.859101,46.59552 C63.072138,52.26552 66.233535,60.4152 66.233535,70.81992 L71.88488,70.81992 C71.88488,66.48264 71.381295,62.4888 70.404253,58.80384 L81.27653,68.94504 C81.237793,69.22368 81.192599,69.50232 81.192599,69.78744 C81.192599,73.84608 84.472359,77.12712 88.507498,77.12712 C91.128724,77.12712 93.420682,75.73176 94.707622,73.656 L99.192544,73.656 C100.632281,89.532 113.949313,102.02112 130.139364,102.02112 C147.278479,102.02112 161.215309,88.02432 161.215309,70.81992 C161.19594,53.61768 147.252654,39.61872 130.117843,39.61872 L130.117843,39.61872 L130.117843,39.61872 Z M57.033419,70.81992 C57.033419,84.89664 45.620972,96.34896 31.595908,96.34896 C17.570843,96.34896 6.160548,84.90096 6.160548,70.81992 C6.160548,56.7432 17.570843,45.2952 31.595908,45.2952 C35.342668,45.2952 38.891438,46.12896 42.095876,47.5956 C35.5837,59.78232 29.379272,69.04224 29.256604,69.23016 L33.939516,72.40968 C34.458166,71.63208 40.53347,62.55792 46.972475,50.5332 C53.073604,55.20528 57.033419,62.54496 57.033419,70.81992 L57.033419,70.81992 L57.033419,70.81992 Z M88.955129,62.48232 C88.813092,62.47584 88.679664,62.44128 88.539779,62.43696 C88.511802,62.43912 88.490281,62.45424 88.464456,62.44992 C88.438631,62.44776 88.408502,62.44776 88.382677,62.4456 C88.315963,62.45424 88.240641,62.4672 88.173926,62.47152 L88.16747,62.4348 C87.300184,62.4348 86.189714,62.78688 85.414968,63.08064 L85.423576,63.1368 C84.978097,63.34848 84.55629,63.6012 84.164613,63.89496 L54.732853,36.41976 L53.725682,37.50192 C53.654664,37.4652 53.581493,37.42632 53.506171,37.38528 C54.556382,35.0676 55.561401,32.71536 56.495401,30.35664 C63.022641,36.70056 79.711972,51.39288 94.94435,52.08408 L88.955129,62.48232 L88.955129,62.48232 Z M99.179631,67.986 L95.5663,67.986 C95.299442,66.93192 94.798009,65.97504 94.139475,65.15208 L102.594972,51.09696 C102.676751,51.06888 102.762834,51.04944 102.844613,51.02136 L102.76929,50.8032 L105.971576,45.48744 L112.044728,45.48744 C104.908452,50.63256 100.016788,58.7196 99.179631,67.986 L99.179631,67.986 L99.179631,67.986 Z M127.1157,45.48744 L127.294323,45.48744 L127.294323,67.986 L104.850346,67.986 C106.154502,56.23128 115.42994,46.87416 127.1157,45.48744 L127.1157,45.48744 L127.1157,45.48744 Z M130.117843,96.34896 C117.0483,96.34896 106.257802,86.40432 104.85465,73.65816 L132.941364,73.65816 L132.941364,45.468 C145.642903,46.88064 155.551051,57.70872 155.551051,70.81992 C155.551051,84.90096 144.138604,96.34896 130.117843,96.34896 L130.117843,96.34896 L130.117843,96.34896 Z" id="Fill-4"></path>
                    </g>
                </g>
            </g>
        </g>
    </g>
</svg>