<?xml version="1.0" encoding="utf-8"?>
<!-- Generator: Adobe Illustrator 16.0.0, SVG Export Plug-In . SVG Version: 6.00 Build 0)  -->
<!DOCTYPE svg PUBLIC "-//W3C//DTD SVG 1.0//EN" "http://www.w3.org/TR/2001/REC-SVG-20010904/DTD/svg10.dtd">
<svg version="1.0" id="Calque_1" xmlns="http://www.w3.org/2000/svg" xmlns:xlink="http://www.w3.org/1999/xlink" x="0px" y="0px"
	 width="390px" height="240px" viewBox="-102.5 0 390 240" enable-background="new -102.5 0 390 240" xml:space="preserve">
<g id="smartphone">
	<path id="smartphone-4-icon" fill="#3A93C4" d="M269.449,48.874h-55.627c-6.431,0-11.643,5.213-11.643,11.645V182.59
		c0,6.431,5.212,11.646,11.643,11.646h55.627c6.431,0,11.642-5.216,11.642-11.646V60.519
		C281.091,54.087,275.88,48.874,269.449,48.874L269.449,48.874z M235.46,59.538h13.056c0.777,0,1.41,0.632,1.41,1.414
		c0,0.777-0.633,1.409-1.41,1.409H235.46c-0.777,0-1.409-0.632-1.409-1.409C234.051,60.168,234.683,59.538,235.46,59.538
		L235.46,59.538z M241.988,187.551c-3.117,0-5.645-2.528-5.645-5.644s2.527-5.646,5.645-5.646c3.114,0,5.646,2.531,5.646,5.646
		S245.105,187.551,241.988,187.551L241.988,187.551z M272.244,170.156h-61.217V72.952h61.217V170.156L272.244,170.156z"/>
</g>
<path id="borne" fill="#3A93C4" d="M25.559,3.11h-98.275c-11.362,0-20.569,8.493-20.569,18.976v198.939
	c0,10.48,9.207,18.976,20.569,18.976h98.273c11.362,0,20.569-8.495,20.569-18.976V22.085C46.126,11.603,36.919,3.11,25.559,3.11
	L25.559,3.11z M30.495,85.293H-77.653V27.921H30.495V85.293L30.495,85.293z"/>
<path id="onde3" fill="#3A93C4" d="M85.243,127.692c0,20.577,8.341,39.208,21.826,52.69l11.996-11.992
	c-10.414-10.414-16.854-24.803-16.854-40.694c0-15.895,6.439-30.281,16.854-40.693l-11.996-12.001
	C93.584,88.486,85.243,107.116,85.243,127.692L85.243,127.692L85.243,127.692z"/>
<path id="onde1" fill="#3A93C4" d="M136.243,127.69c0,6.494,2.634,12.371,6.889,16.626l16.626-16.626l-16.626-16.624
	C138.881,115.323,136.243,121.195,136.243,127.69L136.243,127.69L136.243,127.69z"/>
<path id="onde2" fill="#3A93C4" d="M110.462,127.691c0,13.612,5.519,25.937,14.437,34.856l12.105-12.104
	c-5.823-5.822-9.423-13.869-9.423-22.753s3.6-16.926,9.423-22.753l-12.105-12.102C115.979,101.757,110.462,114.078,110.462,127.691
	L110.462,127.691L110.462,127.691z"/>
</svg>
