<?xml version="1.0" encoding="utf-8"?>
<!-- Generator: Adobe Illustrator 18.1.1, SVG Export Plug-In . SVG Version: 6.00 Build 0)  -->
<svg version="1.1" id="Calque_1" xmlns:sketch="http://www.bohemiancoding.com/sketch/ns"
	 xmlns="http://www.w3.org/2000/svg" xmlns:xlink="http://www.w3.org/1999/xlink" x="0px" y="0px" viewBox="-257.5 357.4 110 128"
	 enable-background="new -257.5 357.4 110 128" xml:space="preserve">
<title></title>
<desc>Created with Sketch.</desc>
<g id="index" sketch:type="MSPage">
	<g id="Imported-Layers" transform="translate(-314.000000, -16.000000)" sketch:type="MSLayerGroup">
		<path id="Fill-13" sketch:type="MSShapeGroup" fill="#A1A1A1" d="M128.3,446.6c-6.4,7.9-15,16.8-25,27.4
			c-25.8-27.3-42.8-43.9-35.3-60.3c3-6.4,9-10.2,16.2-10.2c12.1,0,16.6,9.9,19.1,14.1c2.7-4.5,7.6-14.1,19.1-14.1
			c7.2,0,13.2,3.8,16.2,10.2c1,2.1,1.5,4.1,1.7,6.2l6.6-9.7c-4.1-9.3-12.9-16.2-24.5-16.2c-7.6,0-14.5,3.1-19.1,8.2
			c-4.6-5.2-11.5-8.2-19.1-8.2c-17.7,0-29.1,16.1-26.6,32.3c2.1,13.2,11.7,26.1,45.7,61.1c18.5-19,29.7-31.4,36.4-40.8L128.3,446.6"
			/>
		<path id="Fill-14" sketch:type="MSShapeGroup" fill="#A1A1A1" d="M151,430.5l7-25.8l-25.3,37.2h15.3l-7.2,26.2l24.2-37.6H151"/>
	</g>
</g>
</svg>
