<?xml version="1.0" encoding="utf-8"?>
<!-- Generator: Adobe Illustrator 18.1.1, SVG Export Plug-In . SVG Version: 6.00 Build 0)  -->
<svg version="1.1" id="Calque_1" xmlns:sketch="http://www.bohemiancoding.com/sketch/ns"
	 xmlns="http://www.w3.org/2000/svg" xmlns:xlink="http://www.w3.org/1999/xlink" x="0px" y="0px" viewBox="-257.5 357.4 110 128"
	 enable-background="new -257.5 357.4 110 128" xml:space="preserve">
<title></title>
<desc>Created with Sketch.</desc>
<g id="index" sketch:type="MSPage" display="none">
	<g id="Imported-Layers" transform="translate(-314.000000, -16.000000)" sketch:type="MSLayerGroup" display="inline">
		<path id="Fill-13" sketch:type="MSShapeGroup" fill="#A1A1A1" d="M128.3,446.6c-6.4,7.9-15,16.8-25,27.4
			c-25.8-27.3-42.8-43.9-35.3-60.3c3-6.4,9-10.2,16.2-10.2c12.1,0,16.6,9.9,19.1,14.1c2.7-4.5,7.6-14.1,19.1-14.1
			c7.2,0,13.2,3.8,16.2,10.2c1,2.1,1.5,4.1,1.7,6.2l6.6-9.7c-4.1-9.3-12.9-16.2-24.5-16.2c-7.6,0-14.5,3.1-19.1,8.2
			c-4.6-5.2-11.5-8.2-19.1-8.2c-17.7,0-29.1,16.1-26.6,32.3c2.1,13.2,11.7,26.1,45.7,61.1c18.5-19,29.7-31.4,36.4-40.8L128.3,446.6"
			/>
		<path id="Fill-14" sketch:type="MSShapeGroup" fill="#A1A1A1" d="M151,430.5l7-25.8l-25.3,37.2h15.3l-7.2,26.2l24.2-37.6H151"/>
	</g>
</g>
<title>vehicle92</title>
<desc>Created with Sketch.</desc>
<g id="Page-1" sketch:type="MSPage">
	<g id="Desktop" transform="translate(-888.000000, -2798.000000)" sketch:type="MSArtboardGroup">
		<g id="vehicle92" transform="translate(888.000000, 2798.000000)" sketch:type="MSLayerGroup">
			<path id="Shape" sketch:type="MSShapeGroup" fill="#A1A1A1" d="M-199,418.8l21.8-19.4l-19.2,22c0.6,1,0.9,2.2,0.9,3.5
				c0,4-3.2,7.2-7.2,7.2c-4,0-7.2-3.2-7.2-7.2c0-4,3.2-7.2,7.2-7.2C-201.4,417.8-200.1,418.2-199,418.8L-199,418.8z M-155.8,425
				c0,25.9-21.1,47-47,47s-47-21.1-47-47s21.1-47,47-47S-155.8,399.1-155.8,425L-155.8,425z M-166.1,440.9l-5.9-2.4l0.7-1.7l5.9,2.4
				c1.5-3.9,2.4-8,2.6-12.4h-6.3v-3.7h6.3c-0.2-4.5-1.1-8.8-2.7-12.8l-5.9,2.5l-0.7-1.7l5.9-2.5c-4.1-9.1-11.4-16.3-20.5-20.3
				l-2.4,5.9l-1.7-0.7l2.4-5.9c-3.9-1.5-8-2.4-12.4-2.6v6.3h-3.7V385c-4.5,0.2-8.8,1.1-12.8,2.7l2.5,5.9l-1.7,0.7l-2.5-5.9
				c-3.9,1.8-7.4,4.1-10.6,7l4.5,4.5l-2.6,2.6l-4.5-4.5c-3,3.2-5.4,6.9-7.2,11l5.9,2.4l-0.7,1.7l-5.9-2.4c-1.5,3.9-2.4,8-2.6,12.4
				h6.3v3.7h-6.3c0.2,4.5,1.1,8.8,2.7,12.8l5.9-2.5l0.7,1.7l-5.9,2.5c1.8,3.9,4.1,7.4,7,10.6l4.5-4.5l2.6,2.6l-4.5,4.4
				c7.1,6.5,16.5,10.5,26.9,10.5c10.4,0,19.8-4,26.9-10.5l-4.5-4.4l2.6-2.6l4.4,4.5C-170.3,448.6-167.8,444.9-166.1,440.9
				L-166.1,440.9z M-216,450h26.5v-5.2H-216V450L-216,450z"/>
		</g>
	</g>
</g>
</svg>
