<?xml version="1.0" encoding="utf-8"?>
<!-- Generator: Adobe Illustrator 16.0.0, SVG Export Plug-In . SVG Version: 6.00 Build 0)  -->
<!DOCTYPE svg PUBLIC "-//W3C//DTD SVG 1.1//EN" "http://www.w3.org/Graphics/SVG/1.1/DTD/svg11.dtd">
<svg version="1.1" id="Calque_1" xmlns="http://www.w3.org/2000/svg" xmlns:xlink="http://www.w3.org/1999/xlink" x="0px" y="0px"
	 width="17px" height="21px" viewBox="1.5 0 17 21" enable-background="new 1.5 0 17 21" xml:space="preserve">
<g>
	<path fill="#BEBEBE" d="M17.51,8.122h-1.154c0-0.955-0.146-3.134-2.183-5.067C13.091,2.033,11.693,1.5,9.975,1.5
		c-1.717,0-3.116,0.511-4.196,1.555C3.743,4.988,3.595,7.167,3.595,8.122H2.491C2.221,8.122,2,8.322,2,8.567v11.489
		C2,20.299,2.221,20.5,2.491,20.5H17.51c0.269,0,0.49-0.201,0.49-0.443V8.567C18,8.322,17.778,8.122,17.51,8.122z M7.031,4.122
		c0.76-0.711,1.718-1.067,2.944-1.067s2.21,0.356,2.947,1.067c1.593,1.511,1.716,3.245,1.716,4H5.313
		C5.313,7.367,5.412,5.655,7.031,4.122z M17.063,19.625H2.875V9.016h14.188V19.625z"/>
	<path fill="#BEBEBE" d="M9.19,16.278c0,0.245,0.221,0.443,0.491,0.443h0.735c0.271,0,0.493-0.198,0.493-0.443v-2.333
		c0.194-0.201,0.317-0.444,0.317-0.734c0-0.577-0.515-1.065-1.177-1.065c-0.638,0-1.178,0.466-1.178,1.065
		c0,0.29,0.122,0.533,0.319,0.734V16.278z"/>
</g>
<rect x="2" y="10.719" fill="#BEBEBE" width="0.875" height="0.188"/>
<rect x="10.246" y="8.141" fill="#BEBEBE" width="0.049" height="0.875"/>
</svg>
