<?xml version="1.0" encoding="utf-8"?>
<!-- Generator: Adobe Illustrator 16.0.0, SVG Export Plug-In . SVG Version: 6.00 Build 0)  -->
<!DOCTYPE svg PUBLIC "-//W3C//DTD SVG 1.0//EN" "http://www.w3.org/TR/2001/REC-SVG-20010904/DTD/svg10.dtd">
<svg version="1.0" id="Calque_1" xmlns="http://www.w3.org/2000/svg" xmlns:xlink="http://www.w3.org/1999/xlink" x="0px" y="0px"
	 width="75px" height="106px" viewBox="0 0 75 106" enable-background="new 0 0 75 106" xml:space="preserve">
<path id="onde3" fill="#3A93C4" d="M0.243,52.692c0,20.577,8.342,39.208,21.826,52.69l11.995-11.992
	C23.65,82.977,17.21,68.588,17.21,52.696c0-15.895,6.439-30.281,16.854-40.693L22.069,0.002C8.584,13.486,0.243,32.116,0.243,52.692
	L0.243,52.692L0.243,52.692z"/>
<path id="onde1" fill="#3A93C4" d="M51.243,52.69c0,6.494,2.634,12.371,6.889,16.626L74.758,52.69L58.132,36.066
	C53.881,40.323,51.243,46.195,51.243,52.69L51.243,52.69L51.243,52.69z"/>
<path id="onde2" fill="#3A93C4" d="M25.462,52.691c0,13.612,5.519,25.937,14.437,34.856l12.105-12.104
	c-5.823-5.822-9.423-13.869-9.423-22.753s3.6-16.926,9.423-22.753L39.898,17.837C30.979,26.757,25.462,39.078,25.462,52.691
	L25.462,52.691L25.462,52.691z"/>
</svg>
