<?xml version="1.0" encoding="utf-8"?>
<!-- Generator: Adobe Illustrator 18.1.1, SVG Export Plug-In . SVG Version: 6.00 Build 0)  -->
<svg version="1.1" id="Calque_1" xmlns="http://www.w3.org/2000/svg" xmlns:xlink="http://www.w3.org/1999/xlink" x="0px" y="0px"
	 viewBox="282.1 405.4 31 31" enable-background="new 282.1 405.4 31 31" xml:space="preserve">
<g>
	<path fill="#FFFFFF" d="M297.6,425c-5.5,0-10-4.3-10-9.5c0-5.3,4.5-9.5,10-9.5c5.5,0,10,4.3,10,9.5
		C307.6,420.8,303.1,425,297.6,425z M297.6,408.9c-3.8,0-6.9,3-6.9,6.6c0,3.6,3.1,6.6,6.9,6.6c3.8,0,6.9-3,6.9-6.6
		C304.5,411.8,301.4,408.9,297.6,408.9z"/>
	<path fill="#FFFFFF" d="M311.1,435.9h-26.9c-0.8,0-1.5-0.7-1.5-1.5c0-5.8,3.5-11.5,8.8-14.1c0.6-0.3,1.2-0.2,1.7,0.2
		c1.2,1,2.8,1.6,4.5,1.6c1.6,0,3.2-0.6,4.5-1.6c0.5-0.4,1.2-0.5,1.7-0.2c5.3,2.7,8.8,8.3,8.8,14.1
		C312.6,435.3,312,435.9,311.1,435.9z M285.8,433h23.7c-0.5-3.9-2.9-7.6-6.3-9.6c-1.6,1.1-3.6,1.6-5.6,1.6c-2,0-3.9-0.6-5.6-1.6
		C288.7,425.4,286.3,429.2,285.8,433z"/>
</g>
</svg>
