<?xml version="1.0" encoding="utf-8"?>
<!-- Generator: Adobe Illustrator 18.1.1, SVG Export Plug-In . SVG Version: 6.00 Build 0)  -->
<svg version="1.1" id="Calque_1" xmlns:sketch="http://www.bohemiancoding.com/sketch/ns"
	 xmlns="http://www.w3.org/2000/svg" xmlns:xlink="http://www.w3.org/1999/xlink" x="0px" y="0px" viewBox="-119 403.4 25 35"
	 enable-background="new -119 403.4 25 35" xml:space="preserve">
<title>
	Rectangle 60 + Rectangle 60 Copy 2 + Rectangle 60 Copy 3 + Rectangle 60 Copy 4 + Rectangle 59 + Rectangle 59 Copy + Triangle 1 + Triangle 1 Copy
	</title>
<desc>Created with Sketch.</desc>
<g>
	<g id="Rectangle-60-_x2B_-Rectangle-60-Copy-2" transform="translate(1.000000, 0.000000)" sketch:type="MSShapeGroup">
		<path id="Rectangle-60" fill="#FFFFFF" d="M-114.5,405v-1.1h-4.9v4.9h1.1V405H-114.5z"/>
		<path id="Rectangle-60-Copy-2" fill="#FFFFFF" d="M-96.6,408.8h1.1v-4.9h-4.9v1.1h3.8V408.8z"/>
	</g>
	<g id="Rectangle-60-Copy-3-_x2B_-Rectangle-60-Copy-4" transform="translate(0.000000, 234.000000)" sketch:type="MSShapeGroup">
		<path id="Rectangle-60-Copy-3" fill="#FFFFFF" d="M-113.6,202.8v1.1h-4.9V199h1.1v3.8H-113.6z"/>
		<path id="Rectangle-60-Copy-4" fill="#FFFFFF" d="M-95.7,199h1.1v4.9h-4.9v-1.1h3.8V199z"/>
	</g>
</g>
<g id="smartphone">
	<path id="smartphone-4-icon" fill="#FFFFFF" d="M-101.6,408.1h-9.9c-1.1,0-2.1,0.9-2.1,2v21.4c0,1.1,0.9,2,2.1,2h9.9
		c1.1,0,2.1-0.9,2.1-2v-21.4C-99.5,409.1-100.4,408.1-101.6,408.1L-101.6,408.1z M-107.6,410h2.3c0.1,0,0.3,0.1,0.3,0.2
		c0,0.1-0.1,0.2-0.3,0.2h-2.3c-0.1,0-0.3-0.1-0.3-0.2C-107.8,410.1-107.7,410-107.6,410L-107.6,410z M-106.4,432.5c-0.6,0-1-0.4-1-1
		c0-0.5,0.4-1,1-1c0.6,0,1,0.4,1,1C-105.4,432-105.9,432.5-106.4,432.5L-106.4,432.5z M-101.1,429.4h-10.9v-17.1h10.9V429.4
		L-101.1,429.4z"/>
</g>
</svg>
