<?xml version="1.0" encoding="utf-8"?>
<!-- Generator: Adobe Illustrator 18.1.1, SVG Export Plug-In . SVG Version: 6.00 Build 0)  -->
<svg version="1.1" id="Calque_1" xmlns:sketch="http://www.bohemiancoding.com/sketch/ns"
	 xmlns="http://www.w3.org/2000/svg" xmlns:xlink="http://www.w3.org/1999/xlink" x="0px" y="0px" viewBox="-152 409.4 34 24"
	 enable-background="new -152 409.4 34 24" xml:space="preserve">
<title>km_parcouru</title>
<desc>Created with Sketch.</desc>
<g id="Page-1" sketch:type="MSPage">
	<g id="Desktop" transform="translate(-1023.000000, -3014.000000)" sketch:type="MSArtboardGroup">
		<g id="km_parcouru" transform="translate(1023.000000, 3014.000000)" sketch:type="MSLayerGroup">
			<g id="index" sketch:type="MSShapeGroup">
				<g id="Imported-Layers">
					<path id="Fill-4" fill="#FFFFFF" d="M-124.8,418.6c-0.2,0-0.5,0-0.7,0h-1.8c0.2-0.1,0.5-0.3,0.8-0.4c1.2-0.4,3.5-0.4,7.3,1.7
						l0.6-1c-3.4-1.9-6.1-2.5-8.3-1.8c-1.2,0.4-1.9,1.1-2.2,1.5h-0.3l2.4-4.2h2.1v-1.2h-4.2v1.2h0.8l-3.3,5.7
						c-1.7,0.2-3.7-0.9-5.2-1.9c-1.4-1-2.6-2.2-3.1-2.6c0.5-1.3,0.8-2.6,0.9-3.8c0.2-0.2,1-0.4,3.1,0.4l0.4-1.1
						c-1.7-0.7-3-0.8-3.9-0.4c-0.6,0.3-0.7,0.7-0.8,0.8l0,0.2c-0.1,1.8-0.9,4-1.8,6.1c-2.6-1-5.2-0.7-5.3-0.7l0.1,1.2
						c0,0,2.4-0.2,4.7,0.6c-0.1,0.2-0.2,0.3-0.2,0.5c-0.8-0.4-1.8-0.6-2.7-0.6c-3.6,0-6.5,2.9-6.5,6.5c0,3.6,2.9,6.5,6.5,6.5
						c3.6,0,6.5-2.9,6.5-6.5c0-2.2-1.1-4.1-2.7-5.3c0.1-0.2,0.2-0.4,0.3-0.6c0.4,0.2,0.8,0.5,1.2,0.9c1.3,1.2,2,2.9,2,5.1h1.2
						c0-0.9-0.1-1.7-0.3-2.5l2.3,2.1c0,0.1,0,0.1,0,0.2c0,0.9,0.7,1.5,1.5,1.5c0.5,0,1-0.3,1.3-0.7h0.9c0.3,3.3,3.1,5.9,6.5,5.9
						c3.6,0,6.5-2.9,6.5-6.5C-118.3,421.5-121.2,418.6-124.8,418.6L-124.8,418.6L-124.8,418.6z M-140.2,425.1c0,3-2.4,5.4-5.3,5.4
						s-5.3-2.4-5.3-5.4c0-3,2.4-5.4,5.3-5.4c0.8,0,1.5,0.2,2.2,0.5c-1.4,2.6-2.7,4.5-2.7,4.5l1,0.7c0.1-0.2,1.4-2.1,2.7-4.6
						C-141,421.9-140.2,423.4-140.2,425.1L-140.2,425.1L-140.2,425.1z M-133.5,423.4C-133.5,423.4-133.5,423.4-133.5,423.4
						c-0.1,0-0.1,0-0.1,0c0,0,0,0,0,0c0,0,0,0,0,0l0,0c-0.2,0-0.4,0.1-0.6,0.1l0,0c-0.1,0-0.2,0.1-0.3,0.2l-6.2-5.8l-0.2,0.2
						c0,0,0,0,0,0c0.2-0.5,0.4-1,0.6-1.5c1.4,1.3,4.9,4.4,8.1,4.6L-133.5,423.4L-133.5,423.4z M-131.3,424.5h-0.8
						c-0.1-0.2-0.2-0.4-0.3-0.6l1.8-2.9c0,0,0,0,0.1,0l0,0l0.7-1.1h1.3C-130.1,420.9-131.1,422.6-131.3,424.5L-131.3,424.5
						L-131.3,424.5z M-125.5,419.8L-125.5,419.8l0,4.7h-4.7C-129.9,422.1-127.9,420.1-125.5,419.8L-125.5,419.8L-125.5,419.8z
						 M-124.8,430.5c-2.7,0-5-2.1-5.3-4.8h5.9v-5.9c2.7,0.3,4.7,2.6,4.7,5.3C-119.5,428.1-121.9,430.5-124.8,430.5L-124.8,430.5
						L-124.8,430.5z"/>
				</g>
			</g>
		</g>
	</g>
</g>
</svg>
