<?xml version="1.0" encoding="utf-8"?>
<!-- Generator: Adobe Illustrator 16.0.0, SVG Export Plug-In . SVG Version: 6.00 Build 0)  -->
<!DOCTYPE svg PUBLIC "-//W3C//DTD SVG 1.1//EN" "http://www.w3.org/Graphics/SVG/1.1/DTD/svg11.dtd">
<svg version="1.1" id="Calque_1" xmlns:sketch="http://www.bohemiancoding.com/sketch/ns"
	 xmlns="http://www.w3.org/2000/svg" xmlns:xlink="http://www.w3.org/1999/xlink" x="0px" y="0px" width="200px" height="200px"
	 viewBox="0 0 200 200" enable-background="new 0 0 200 200" xml:space="preserve">
<title>km_parcouru</title>
<desc>Created with Sketch.</desc>
<g id="Page-1" sketch:type="MSPage">
	<g id="Desktop" transform="translate(-1023.000000, -3014.000000)" sketch:type="MSArtboardGroup">
		<g id="km_parcouru" transform="translate(1023.000000, 3014.000000)" sketch:type="MSLayerGroup">
			<g id="index" sketch:type="MSShapeGroup">
				<g id="Imported-Layers">
					<path id="Fill-4" fill="#333333" d="M161.176,89.207c-1.176,0-2.94,0-4.117,0h-10.588c1.176-0.59,2.941-1.766,4.705-2.354
						c7.06-2.354,20.589-2.354,42.941,10l3.529-5.883c-20-11.176-35.882-14.705-48.823-10.588
						c-7.059,2.354-11.177,6.471-12.94,8.824h-1.766L148.235,64.5h12.353v-7.059h-24.705V64.5h4.705l-19.412,33.529
						c-10,1.178-21.764-5.293-30.588-11.176c-8.235-5.883-15.294-12.941-18.235-15.295c2.941-7.646,4.706-15.293,5.294-22.352
						c1.176-1.178,5.882-2.354,18.235,2.352l2.353-6.471c-10-4.117-17.647-4.705-22.941-2.352c-3.529,1.764-4.118,4.117-4.706,4.705
						v1.176C70,59.207,65.294,72.148,60,84.5c-15.294-5.883-30.588-4.117-31.177-4.117l0.588,7.059c0,0,14.118-1.176,27.647,3.529
						c-0.588,1.178-1.176,1.766-1.176,2.941C51.176,91.559,45.294,90.383,40,90.383c-21.177,0-38.235,17.059-38.235,38.234
						c0,21.178,17.059,38.236,38.235,38.236c21.176,0,38.235-17.059,38.235-38.236c0-12.939-6.471-24.117-15.883-31.176
						c0.588-1.176,1.177-2.354,1.765-3.529c2.353,1.176,4.706,2.941,7.059,5.295c7.647,7.059,11.765,17.059,11.765,30H90
						c0-5.295-0.588-10-1.765-14.707l13.53,12.354c0,0.588,0,0.588,0,1.176c0,5.295,4.118,8.824,8.823,8.824
						c2.941,0,5.883-1.764,7.647-4.117h5.294c1.765,19.412,18.235,34.705,38.235,34.705c21.177,0,38.235-17.059,38.235-38.234
						C199.412,106.266,182.353,89.207,161.176,89.207L161.176,89.207L161.176,89.207z M70.588,127.441
						c0,17.646-14.117,31.764-31.176,31.764S8.235,145.088,8.235,127.441s14.117-31.766,31.176-31.766
						c4.706,0,8.824,1.178,12.941,2.941c-8.235,15.295-15.882,26.471-15.882,26.471l5.882,4.119
						c0.588-1.178,8.235-12.354,15.883-27.061C65.882,108.617,70.588,117.441,70.588,127.441L70.588,127.441L70.588,127.441z
						 M110,117.441L110,117.441c-0.588,0-0.588,0-0.588,0l0,0l0,0l0,0c-1.177,0-2.354,0.588-3.529,0.588l0,0
						c-0.589,0-1.178,0.588-1.766,1.178l-36.47-34.119l-1.177,1.178l0,0c1.177-2.941,2.353-5.883,3.53-8.824
						c8.235,7.646,28.823,25.883,47.646,27.059L110,117.441L110,117.441z M122.941,123.912h-4.706
						c-0.589-1.176-1.177-2.354-1.765-3.529l10.588-17.059c0,0,0,0,0.588,0l0,0l4.118-6.471h7.647
						C130,102.736,124.117,112.736,122.941,123.912L122.941,123.912L122.941,123.912z M157.059,96.266L157.059,96.266v27.646
						h-27.646C131.176,109.795,142.941,98.029,157.059,96.266L157.059,96.266L157.059,96.266z M161.176,159.205
						c-15.882,0-29.411-12.352-31.176-28.234h34.705V96.266c15.883,1.764,27.647,15.293,27.647,31.176
						C192.353,145.088,178.235,159.205,161.176,159.205L161.176,159.205L161.176,159.205z"/>
				</g>
			</g>
		</g>
	</g>
</g>
</svg>
