<?xml version="1.0" encoding="utf-8"?>
<!-- Generator: Adobe Illustrator 18.0.0, SVG Export Plug-In . SVG Version: 6.00 Build 0)  -->
<svg version="1.1" id="Layer_1" xmlns="http://www.w3.org/2000/svg" xmlns:xlink="http://www.w3.org/1999/xlink" x="0px" y="0px"
	 viewBox="0 0 265 97.7" style="enable-background:new 0 0 265 97.7;" xml:space="preserve">
<style type="text/css">
	.st0{fill:none;stroke:#2E4857;stroke-width:2.5;stroke-miterlimit:10;}
</style>
<g>
	<circle class="st0" cx="33.3" cy="63.2" r="29.7"/>
	<line class="st0" x1="33.3" y1="63.2" x2="68.2" y2="4.8"/>
	<line class="st0" x1="73.4" y1="18.6" x2="60" y2="18.6"/>
	<path class="st0" d="M81.7,4.8"/>
	<line class="st0" x1="87.1" y1="4.8" x2="67.2" y2="4.8"/>
	<circle class="st0" cx="33.3" cy="63.2" r="29.7"/>
	<line class="st0" x1="33.3" y1="63.2" x2="68.2" y2="4.8"/>
	<line class="st0" x1="73.4" y1="18.6" x2="60" y2="18.6"/>
	<circle class="st0" cx="231.7" cy="63.2" r="29.7"/>
	<path class="st0" d="M73.4,18.6c8.2,0,14.9,6.7,14.9,14.9v29.7c0,8.2,6.7,14.9,14.9,14.9c8.2,0,14.9-6.7,14.9-14.9V33.4
		c0-8.2,6.7-14.9,14.9-14.9c8.2,0,14.9,6.7,14.9,14.9v29.7c0,8.2,6.7,14.9,14.9,14.9c8.2,0,14.9-6.7,14.9-14.9V33.4
		c0-8.2,6.7-14.9,14.9-14.9h-0.7H205"/>
	<path class="st0" d="M177.4,63.2V33.4c0-8.2,6.7-14.9,14.9-14.9h-0.7H205"/>
	<path class="st0" d="M187.1,61h29.7c8.2,0,14.9-6.7,14.9-14.9v0.7V33.4"/>
	<path class="st0" d="M231.5,33.4c0-8.2-6.7-14.9-14.9-14.9h0.7h-13.4"/>
</g>
</svg>
