<?xml version="1.0" encoding="utf-8"?>
<!-- Generator: Adobe Illustrator 18.0.0, SVG Export Plug-In . SVG Version: 6.00 Build 0)  -->
<svg version="1.1" id="Calque_1" xmlns="http://www.w3.org/2000/svg" xmlns:xlink="http://www.w3.org/1999/xlink" x="0px" y="0px"
	 viewBox="756.3 303.4 640 645.4" style="enable-background:new 756.3 303.4 640 645.4;" xml:space="preserve">
<style type="text/css">
	.st0{fill:none;stroke:#2B4B59;stroke-width:7;stroke-miterlimit:10;}
	.st1{fill:none;stroke:#2B4B59;stroke-width:14;stroke-miterlimit:10;}
	.st2{fill:none;stroke:#1E3C49;stroke-width:14;stroke-miterlimit:10;}
	.st3{fill:none;stroke:#1E3C49;stroke-width:14;stroke-linecap:round;stroke-miterlimit:10;}
</style>
<path class="st0" d="M576,224.2H458.5v26.9h-277v-26.9H64c-18.9,0-34.3,15.5-34.3,34.3v772.9c0,18.9,15.5,34.3,34.3,34.3h117.5
	v-27.5h277.3v27.5h117.5c18.9,0,34.3-15.5,34.3-34.3V258.5C610.3,239.7,594.9,224.2,576,224.2z"/>
<line class="st0" x1="124.9" y1="432.9" x2="504.3" y2="432.9"/>
<line class="st0" x1="124.9" y1="520.4" x2="504.3" y2="520.4"/>
<circle class="st1" cx="1076.3" cy="628.3" r="310.1"/>
<circle class="st2" cx="1076.3" cy="628.3" r="14"/>
<line class="st3" x1="1076.3" y1="342.9" x2="1076.3" y2="565.9"/>
<line class="st3" x1="874.5" y1="426.5" x2="1032.1" y2="584.2"/>
<line class="st3" x1="790.9" y1="628.3" x2="1013.9" y2="628.3"/>
<line class="st3" x1="874.5" y1="830.1" x2="1032.1" y2="672.4"/>
<line class="st3" x1="1076.3" y1="913.7" x2="1076.3" y2="690.7"/>
<line class="st3" x1="1278.1" y1="830.1" x2="1120.4" y2="672.4"/>
<line class="st3" x1="1361.7" y1="628.3" x2="1138.7" y2="628.3"/>
<line class="st3" x1="1278.1" y1="426.5" x2="1120.4" y2="584.2"/>
</svg>
